<?xml version="1.0" standalone="no"?>
<!DOCTYPE svg PUBLIC "-//W3C//DTD SVG 20010904//EN"
 "http://www.w3.org/TR/2001/REC-SVG-20010904/DTD/svg10.dtd">
<svg version="1.0" xmlns="http://www.w3.org/2000/svg"
 width="1061.000000pt" height="1061.000000pt" viewBox="0 0 1061.000000 1061.000000"
 preserveAspectRatio="xMidYMid meet">
<metadata>
Created by potrace 1.14, written by Peter Selinger 2001-2017
</metadata>
<g transform="translate(0.000000,1061.000000) scale(0.100000,-0.100000)"
fill="#000000" stroke="none">
<path d="M4923 10595 c-11 -8 -25 -10 -39 -5 -12 5 -25 6 -28 2 -11 -10 -46
-9 -46 2 0 6 -4 5 -9 -2 -9 -14 -61 -19 -80 -8 -6 4 -11 2 -11 -3 0 -6 -9 -11
-21 -11 -13 0 -18 -4 -13 -12 5 -7 3 -8 -7 -2 -19 12 -71 15 -64 3 9 -13 -9
-11 -23 3 -9 9 -12 9 -12 -1 0 -8 -7 -10 -19 -6 -11 3 -22 1 -26 -4 -3 -6 -21
-9 -40 -6 -19 2 -37 0 -40 -6 -4 -5 -11 -7 -16 -3 -5 3 -17 0 -26 -8 -12 -9
-15 -9 -9 -1 5 9 2 11 -8 7 -9 -3 -14 -9 -11 -13 2 -4 -10 -5 -27 -3 -19 3
-34 -1 -39 -9 -6 -9 -12 -10 -16 -4 -11 13 -36 18 -28 5 6 -9 -7 -13 -47 -13
-10 0 -18 -4 -18 -10 0 -5 -6 -4 -14 2 -10 9 -16 9 -21 1 -4 -6 -14 -9 -22 -6
-9 4 -11 2 -7 -6 5 -7 2 -9 -8 -5 -9 3 -21 0 -28 -6 -10 -9 -11 -9 -5 3 6 11
3 10 -11 -2 -16 -14 -23 -15 -32 -6 -9 9 -12 8 -12 -8 0 -14 -2 -16 -9 -5 -5
8 -11 9 -15 3 -4 -6 -15 -9 -26 -7 -11 2 -20 -1 -20 -6 0 -6 -5 -7 -10 -4 -6
4 -17 1 -25 -5 -8 -7 -15 -9 -15 -4 0 4 -7 -1 -16 -12 -8 -10 -13 -13 -9 -6 4
7 0 12 -9 12 -9 0 -16 -4 -16 -9 0 -5 -12 -8 -26 -8 -15 0 -30 -7 -35 -14 -7
-12 -9 -11 -9 1 0 12 -2 12 -9 2 -4 -7 -21 -14 -37 -16 -16 -2 -33 -4 -37 -5
-5 0 -5 -5 -2 -11 3 -6 -1 -7 -10 -4 -8 4 -22 1 -30 -6 -12 -10 -15 -10 -15 1
-1 10 -4 9 -11 -3 -5 -9 -16 -15 -23 -12 -8 3 -17 1 -21 -5 -3 -6 -18 -11 -32
-11 -20 0 -24 -4 -18 -17 5 -14 3 -15 -6 -6 -9 9 -19 8 -43 -2 -17 -8 -43 -16
-58 -19 -15 -3 -34 -13 -42 -22 -9 -9 -16 -11 -16 -4 0 6 -5 8 -10 5 -6 -4 -8
-11 -5 -16 3 -5 -1 -6 -10 -3 -10 4 -27 -3 -42 -17 -14 -13 -23 -18 -19 -11 8
14 2 15 -22 3 -16 -8 -31 -15 -99 -43 -18 -7 -33 -16 -33 -20 0 -5 -3 -7 -7
-6 -15 5 -94 -32 -88 -41 3 -5 -4 -7 -15 -4 -11 3 -20 0 -20 -6 0 -6 -3 -10
-7 -10 -20 3 -34 -2 -28 -11 3 -5 1 -10 -4 -10 -6 0 -11 4 -11 10 0 5 -7 7
-15 4 -8 -3 -13 -11 -12 -17 1 -7 -4 -11 -11 -9 -7 1 -15 -5 -18 -13 -4 -8
-10 -15 -16 -15 -5 0 -6 5 -3 11 4 6 -2 5 -13 -2 -12 -7 -18 -17 -15 -23 3 -5
2 -7 -3 -4 -13 8 -56 -10 -50 -21 3 -5 -3 -7 -14 -4 -12 3 -20 0 -20 -6 0 -7
-5 -9 -10 -6 -6 3 -13 0 -16 -9 -3 -9 -12 -12 -22 -8 -15 5 -15 4 -3 -11 12
-15 12 -17 -3 -11 -10 4 -16 1 -16 -7 0 -12 -2 -12 -9 -1 -7 11 -9 10 -15 -3
-3 -9 -10 -13 -16 -10 -5 3 -10 1 -10 -5 0 -6 -5 -8 -10 -5 -6 3 -13 0 -16 -9
-3 -9 -12 -12 -21 -9 -10 4 -14 2 -10 -4 4 -6 -3 -13 -14 -16 -14 -4 -18 -10
-13 -19 6 -11 5 -11 -8 0 -12 10 -17 10 -27 -1 -6 -8 -7 -18 -3 -23 4 -4 -1
-2 -11 6 -10 7 -17 9 -15 3 2 -6 -1 -12 -7 -14 -5 -2 -17 -10 -25 -19 -13 -13
-14 -14 -6 0 5 8 -2 3 -16 -11 -13 -14 -29 -24 -36 -21 -7 2 -12 -1 -12 -8 0
-6 -5 -8 -10 -5 -6 4 -9 1 -8 -7 2 -7 -7 -14 -20 -16 -13 -2 -20 -8 -16 -14 5
-7 1 -9 -9 -5 -10 3 -17 2 -17 -3 0 -5 -9 -12 -21 -15 -13 -4 -18 -12 -15 -21
3 -8 2 -12 -3 -9 -5 3 -13 0 -16 -6 -4 -5 -13 -8 -20 -5 -7 2 -16 -2 -19 -10
-4 -10 -2 -12 6 -8 7 4 8 3 4 -4 -4 -6 -12 -9 -19 -6 -7 2 -28 -9 -47 -26 -18
-16 -38 -30 -42 -30 -5 0 -7 -4 -4 -9 4 -5 -4 -7 -16 -3 -14 3 -19 2 -14 -6 4
-7 2 -12 -4 -12 -6 0 -8 -5 -5 -10 4 -6 1 -9 -7 -8 -7 2 -12 -3 -10 -11 3 -12
0 -12 -13 -1 -13 11 -15 10 -9 -6 4 -10 4 -16 -1 -12 -4 4 -14 0 -22 -10 -8
-9 -12 -11 -8 -5 4 9 1 11 -9 7 -9 -3 -13 -10 -10 -15 3 -5 0 -9 -6 -9 -6 0
-8 -5 -4 -12 4 -7 3 -8 -5 -4 -13 8 -44 -18 -33 -28 3 -4 -2 -4 -12 0 -14 5
-17 4 -12 -4 5 -8 0 -12 -13 -12 -12 0 -21 -5 -21 -11 0 -5 5 -7 12 -3 7 4 8
3 4 -4 -4 -7 -14 -12 -22 -12 -8 0 -14 -4 -14 -10 0 -5 -7 -7 -15 -3 -10 3
-15 0 -13 -8 2 -8 -3 -13 -9 -11 -12 2 -17 -11 -14 -31 1 -5 -3 -6 -8 -3 -5 4
-14 -2 -20 -11 -6 -10 -11 -14 -11 -10 0 5 -20 -12 -44 -36 -24 -25 -47 -43
-52 -39 -4 4 -5 0 -2 -8 7 -20 -13 -40 -42 -40 -5 0 -7 -6 -4 -14 3 -8 -3 -16
-16 -19 -14 -4 -19 -10 -14 -18 4 -8 3 -10 -4 -5 -7 4 -12 2 -12 -4 0 -6 -5
-8 -10 -5 -6 3 -13 -1 -16 -9 -3 -9 -12 -16 -19 -16 -8 0 -17 -5 -21 -12 -5
-7 -2 -9 7 -4 8 4 6 1 -3 -7 -10 -8 -18 -22 -18 -31 0 -9 -3 -15 -7 -15 -22 4
-32 -3 -27 -16 4 -10 0 -15 -15 -15 -15 0 -19 -4 -14 -17 4 -11 3 -14 -5 -9
-7 4 -15 1 -18 -8 -3 -9 -9 -14 -13 -12 -4 3 -13 -5 -21 -17 -12 -21 -12 -21
6 -7 18 14 18 14 5 -2 -7 -10 -23 -18 -34 -18 -11 0 -18 -3 -14 -6 3 -4 -1
-13 -9 -21 -8 -8 -11 -19 -8 -25 4 -7 2 -8 -5 -4 -6 4 -14 0 -17 -8 -3 -9 -11
-13 -17 -9 -6 4 -8 0 -4 -10 3 -9 3 -16 -1 -16 -20 3 -33 -2 -27 -11 3 -6 0
-13 -9 -16 -9 -3 -12 -12 -9 -21 4 -10 2 -14 -4 -10 -11 7 -55 -38 -46 -47 4
-3 1 -6 -6 -6 -7 0 -9 -4 -6 -10 3 -5 2 -10 -2 -10 -5 0 -18 -7 -29 -16 -10
-8 -12 -13 -4 -9 8 4 4 -3 -10 -14 -14 -11 -22 -21 -18 -21 4 0 -6 -13 -24
-30 -17 -16 -27 -30 -22 -30 5 0 -2 -9 -16 -20 -14 -11 -19 -20 -12 -20 6 0
12 -4 12 -10 0 -5 -3 -9 -7 -8 -15 3 -43 -14 -37 -23 3 -5 0 -9 -6 -9 -6 0 -8
-4 -5 -10 3 -5 1 -10 -5 -10 -6 0 -9 -4 -5 -9 3 -5 -4 -13 -16 -16 -12 -4 -18
-12 -15 -21 3 -8 1 -14 -4 -14 -14 0 -71 -81 -64 -91 3 -5 -2 -9 -12 -9 -14 0
-15 -2 -3 -17 7 -10 9 -15 4 -10 -11 9 -45 -22 -45 -42 0 -9 -9 -22 -20 -29
-11 -7 -20 -19 -20 -27 0 -8 -5 -15 -11 -15 -5 0 -8 -4 -5 -9 3 -5 -1 -14 -9
-21 -8 -7 -12 -16 -9 -21 3 -5 0 -9 -6 -9 -6 0 -8 -4 -5 -10 3 -5 -1 -10 -10
-10 -9 0 -14 -4 -10 -9 3 -5 -2 -16 -10 -25 -9 -8 -16 -18 -15 -21 1 -21 -1
-25 -12 -19 -8 5 -9 2 -5 -9 3 -9 2 -19 -4 -23 -6 -3 -8 -12 -5 -20 3 -7 0
-11 -7 -8 -7 2 -18 -10 -26 -27 -7 -16 -23 -40 -35 -51 -11 -12 -15 -18 -8
-14 6 4 12 2 12 -4 0 -6 -7 -13 -15 -16 -8 -4 -15 -10 -15 -16 0 -5 6 -6 13
-3 6 4 4 0 -5 -8 -10 -8 -15 -17 -11 -20 3 -4 1 -7 -6 -7 -7 0 -9 -4 -6 -10 3
-5 1 -10 -5 -10 -6 0 -8 -4 -5 -10 3 -5 1 -10 -5 -10 -6 0 -8 -4 -5 -10 3 -5
2 -10 -3 -10 -6 0 -13 -11 -16 -25 -4 -14 -10 -25 -15 -25 -5 0 -8 -11 -7 -24
2 -18 -1 -23 -12 -18 -10 3 -13 1 -8 -6 4 -7 2 -12 -5 -12 -6 0 -9 -8 -6 -20
3 -11 1 -20 -5 -20 -6 0 -8 -7 -5 -14 4 -9 -2 -17 -14 -21 -15 -5 -17 -10 -9
-25 8 -15 7 -18 -3 -14 -13 5 -15 -1 -19 -50 -1 -14 -4 -23 -7 -21 -4 1 -12
-3 -19 -11 -8 -9 -9 -14 -2 -14 7 0 4 -7 -4 -16 -17 -17 -21 -28 -7 -20 5 4 4
-5 -2 -19 -7 -14 -16 -25 -20 -25 -5 0 -5 -4 -2 -10 3 -5 2 -10 -4 -10 -6 0
-8 -7 -5 -15 4 -8 1 -15 -6 -15 -7 0 -10 -6 -7 -14 3 -8 2 -16 -4 -18 -5 -2
-11 -13 -13 -25 -3 -12 -9 -30 -15 -41 -6 -11 -7 -22 -4 -26 3 -3 1 -6 -5 -6
-6 0 -9 -9 -7 -20 2 -11 1 -20 -3 -20 -4 0 -12 -11 -18 -24 -9 -18 -9 -28 0
-37 8 -9 8 -10 -1 -5 -12 6 -16 -4 -12 -30 0 -4 -5 -10 -11 -14 -7 -4 -13 -22
-14 -39 0 -17 -5 -31 -10 -31 -4 0 -6 -13 -4 -29 3 -22 1 -28 -11 -23 -10 4
-13 1 -8 -11 4 -10 1 -17 -6 -17 -8 0 -6 -4 3 -10 12 -8 12 -10 1 -10 -8 0
-11 -3 -8 -7 4 -3 1 -13 -6 -21 -9 -13 -9 -14 0 -8 7 4 13 2 13 -3 0 -6 -5
-11 -11 -11 -5 0 -7 -4 -4 -10 3 -5 1 -10 -6 -10 -7 0 -9 -8 -6 -21 3 -12 0
-22 -8 -25 -8 -3 -11 -12 -8 -21 3 -8 0 -19 -8 -24 -12 -7 -12 -9 0 -9 11 0
11 -3 1 -15 -6 -8 -9 -18 -6 -24 3 -5 -1 -12 -9 -15 -12 -4 -14 -10 -5 -25 6
-13 6 -22 0 -26 -5 -3 -6 -13 -3 -22 4 -11 3 -14 -5 -9 -7 4 -12 1 -12 -8 0
-9 6 -16 13 -16 8 0 7 -3 -3 -10 -8 -5 -16 -21 -17 -36 -1 -15 -7 -30 -14 -34
-8 -6 -6 -11 6 -17 15 -9 15 -11 1 -16 -9 -4 -13 -13 -10 -22 4 -9 1 -15 -7
-15 -11 0 -11 -3 1 -10 11 -7 11 -10 2 -10 -9 0 -10 -5 -3 -19 8 -14 7 -22 -4
-31 -12 -10 -13 -16 -3 -28 11 -13 11 -14 -1 -7 -11 6 -13 4 -8 -8 4 -10 1
-17 -6 -17 -8 0 -6 -4 3 -10 10 -7 11 -10 2 -10 -8 0 -10 -8 -6 -24 4 -16 1
-25 -11 -30 -13 -5 -15 -9 -6 -20 6 -7 9 -15 7 -17 -2 -2 -7 -24 -11 -47 -5
-35 -4 -42 7 -36 10 6 10 5 2 -7 -6 -8 -10 -22 -9 -32 2 -10 -1 -14 -8 -10 -6
4 -8 0 -4 -10 4 -10 1 -17 -6 -17 -8 0 -6 -4 3 -10 8 -5 11 -10 5 -10 -6 0
-10 -27 -10 -60 0 -34 -4 -60 -10 -60 -6 0 -6 -3 1 -8 11 -8 14 -53 3 -46 -4
2 -9 -2 -12 -10 -9 -24 -6 -757 3 -751 13 8 18 -18 7 -39 -8 -16 -6 -18 8 -12
15 5 16 4 5 -9 -7 -8 -9 -15 -4 -15 5 0 2 -5 -6 -10 -8 -5 -10 -10 -5 -10 6 0
10 -15 11 -33 3 -82 8 -127 16 -127 4 0 8 -5 8 -11 0 -5 -6 -7 -12 -3 -9 5 -9
2 1 -9 7 -9 10 -17 6 -17 -4 0 -1 -8 6 -17 8 -9 9 -14 3 -10 -7 4 -11 -4 -10
-23 1 -17 5 -30 10 -30 5 0 2 -8 -5 -17 -12 -14 -12 -16 0 -8 11 6 13 4 8 -9
-4 -10 -3 -15 3 -11 14 9 12 -19 -2 -34 -10 -11 -10 -13 0 -7 12 7 16 -4 12
-38 -1 -12 2 -16 11 -11 8 6 10 4 3 -6 -12 -20 -14 -39 -3 -39 4 0 5 -7 2 -17
-4 -11 -3 -14 5 -9 7 4 12 3 12 -3 0 -5 -5 -11 -11 -13 -8 -3 -6 -14 6 -37 9
-18 11 -30 5 -26 -9 5 -9 2 -2 -11 5 -11 7 -25 5 -32 -3 -8 1 -10 13 -5 12 4
15 3 10 -5 -13 -21 -16 -53 -4 -46 7 5 9 0 6 -14 -4 -12 -2 -22 3 -22 4 0 5
-7 2 -17 -4 -10 -2 -14 5 -9 6 3 14 1 18 -5 4 -7 3 -9 -3 -6 -20 12 -21 -42
-2 -59 13 -12 16 -21 10 -33 -6 -11 -4 -23 5 -35 7 -10 11 -23 8 -27 -3 -5 -1
-9 5 -9 5 0 8 -9 6 -20 -2 -11 0 -20 5 -20 5 0 7 -7 3 -15 -3 -9 3 -25 13 -37
12 -14 14 -18 4 -13 -12 7 -13 6 -3 -7 7 -8 10 -18 6 -21 -3 -4 0 -7 7 -7 7 0
10 -3 7 -7 -4 -3 -2 -12 4 -20 9 -10 8 -13 -2 -13 -11 -1 -11 -3 1 -13 9 -7
17 -28 18 -47 2 -19 7 -37 13 -41 6 -3 10 -9 10 -13 -3 -20 0 -26 11 -20 10 6
10 4 2 -7 -12 -16 7 -64 21 -51 4 4 3 -2 -2 -12 -11 -20 -4 -41 26 -78 10 -13
11 -18 2 -18 -7 0 -9 -5 -6 -10 4 -6 10 -8 14 -5 5 2 7 -7 5 -20 -1 -14 2 -25
7 -25 6 0 7 -5 4 -10 -3 -6 -1 -10 5 -10 6 0 8 -4 5 -10 -3 -5 2 -10 12 -10
14 0 15 -2 4 -9 -9 -6 -10 -11 -2 -15 6 -4 11 -16 11 -27 0 -11 6 -22 14 -25
8 -3 12 -12 9 -20 -3 -8 -1 -20 5 -27 6 -6 12 -21 14 -32 1 -11 9 -26 16 -33
7 -8 10 -18 7 -23 -4 -5 -1 -9 5 -9 6 0 9 -4 6 -9 -3 -5 3 -20 14 -33 11 -14
16 -28 13 -32 -3 -3 -1 -6 6 -6 7 0 10 -4 6 -9 -3 -6 5 -20 17 -32 13 -12 17
-18 9 -14 -15 8 -15 8 14 -48 10 -20 22 -37 26 -37 4 0 5 -10 2 -22 -3 -17 -2
-19 5 -10 7 10 11 6 15 -16 3 -16 12 -36 20 -43 7 -8 12 -20 9 -28 -3 -8 0
-11 7 -7 7 5 13 -4 17 -23 4 -17 12 -31 20 -31 7 0 16 -5 20 -12 5 -7 3 -8 -6
-3 -20 12 -1 -35 26 -64 22 -24 25 -30 23 -47 0 -3 10 -14 22 -25 13 -12 17
-19 9 -19 -9 0 -7 -5 6 -15 10 -8 15 -15 10 -15 -5 0 3 -11 17 -24 14 -13 23
-26 20 -29 -8 -9 37 -68 48 -62 5 4 6 0 3 -8 -3 -8 2 -21 10 -30 9 -9 16 -20
16 -26 0 -6 5 -11 12 -11 6 0 8 -3 4 -7 -3 -4 4 -13 16 -21 19 -11 19 -12 3
-7 -16 5 -14 1 7 -18 15 -13 25 -27 21 -31 -3 -3 -1 -6 5 -6 7 0 12 -7 12 -16
0 -8 5 -12 10 -9 6 3 10 -4 10 -17 0 -19 2 -20 11 -8 8 12 10 11 7 -5 -2 -12
4 -24 17 -30 11 -6 22 -19 24 -30 2 -11 12 -27 22 -36 10 -9 16 -19 12 -23 -3
-3 1 -6 11 -6 9 0 14 -5 11 -10 -3 -6 1 -13 9 -16 9 -3 16 -12 16 -20 0 -8 5
-14 10 -14 6 0 10 -7 10 -16 0 -8 4 -13 8 -10 5 3 16 -11 26 -30 11 -23 22
-34 31 -31 9 4 12 0 10 -14 -3 -13 0 -19 8 -16 7 2 18 -2 25 -9 7 -8 10 -14 7
-14 -3 0 -1 -9 5 -20 6 -11 18 -20 28 -20 14 0 14 -2 3 -9 -11 -7 -9 -10 8
-16 11 -3 21 -11 21 -16 0 -6 11 -21 25 -35 14 -14 25 -29 25 -34 0 -6 10 -10
23 -10 16 0 18 -3 9 -9 -10 -6 -8 -10 8 -14 12 -3 19 -10 16 -15 -7 -12 38
-54 49 -45 4 5 5 3 1 -4 -3 -6 6 -24 20 -40 15 -15 21 -20 14 -10 -7 9 -11 20
-8 22 3 3 13 -10 23 -29 10 -19 27 -37 37 -39 10 -3 18 -12 18 -21 0 -9 4 -16
10 -16 13 0 50 -37 50 -51 0 -5 5 -7 10 -4 6 3 10 1 10 -5 0 -7 7 -9 17 -6 10
4 14 4 11 0 -8 -7 83 -105 92 -99 3 2 15 -10 25 -26 11 -16 26 -29 33 -29 6 0
12 -4 12 -9 0 -5 11 -12 25 -15 14 -4 24 -10 22 -15 -3 -14 44 -51 57 -44 6 3
8 3 4 -2 -8 -9 15 -35 32 -35 6 0 8 -5 5 -10 -3 -6 1 -10 10 -10 8 0 23 -9 32
-20 10 -11 23 -20 30 -20 7 0 13 -6 13 -14 0 -8 9 -18 20 -21 11 -3 20 -11 20
-16 0 -6 5 -7 10 -4 6 3 10 1 10 -6 0 -7 3 -10 6 -6 3 3 20 -8 36 -24 17 -16
37 -29 44 -29 8 0 14 -4 14 -9 0 -10 39 -27 53 -23 4 1 6 -1 6 -5 -3 -20 2
-34 11 -28 5 3 10 1 10 -5 0 -6 4 -9 9 -6 5 3 12 -1 15 -9 3 -8 11 -14 18 -13
7 2 12 -2 11 -9 -2 -7 4 -10 12 -7 9 4 15 0 15 -7 0 -11 3 -11 10 1 7 11 10
12 10 2 0 -7 7 -20 15 -28 8 -9 15 -12 15 -9 0 4 9 -3 21 -16 11 -13 18 -18
14 -11 -3 6 -1 12 4 12 6 0 11 -8 12 -17 0 -10 3 -13 5 -7 3 7 17 0 35 -17 17
-16 37 -29 45 -29 8 0 14 -5 14 -11 0 -5 5 -7 10 -4 6 3 10 1 10 -4 0 -6 3
-10 8 -10 19 3 33 -2 27 -11 -3 -6 1 -7 9 -4 9 3 16 1 16 -5 0 -6 8 -11 18
-11 10 0 24 -9 32 -19 7 -11 17 -18 22 -15 4 3 8 0 8 -6 0 -7 6 -10 12 -8 7 3
19 -1 26 -9 8 -7 18 -10 24 -7 7 4 8 2 4 -4 -6 -11 6 -16 27 -13 4 0 7 -4 7
-10 0 -5 5 -7 10 -4 6 3 10 1 10 -5 0 -6 4 -8 10 -5 5 3 10 1 10 -5 0 -6 5 -8
10 -5 6 3 10 1 10 -5 0 -7 7 -10 15 -6 8 3 15 1 15 -5 0 -6 7 -9 14 -6 11 4
13 1 9 -10 -4 -10 -2 -14 5 -9 6 3 14 2 17 -4 4 -6 16 -8 28 -5 17 5 19 4 7
-4 -14 -10 -8 -13 16 -10 4 0 10 -4 13 -10 4 -6 22 -11 40 -13 18 -1 35 -7 38
-12 3 -5 1 -6 -5 -2 -7 4 -12 3 -12 -2 0 -9 47 -24 79 -26 8 -1 16 -7 19 -14
2 -6 8 -10 13 -6 5 3 9 0 9 -5 0 -6 5 -11 11 -11 5 0 7 6 4 13 -4 6 3 1 15
-13 12 -14 19 -19 15 -13 -3 7 -1 13 4 13 6 0 11 -5 11 -12 0 -6 3 -8 7 -5 3
4 15 -1 26 -10 15 -13 18 -14 12 -3 -6 11 -3 10 11 -2 17 -15 43 -24 77 -27 5
-1 5 -7 1 -13 -5 -8 0 -7 11 2 15 12 17 12 10 1 -6 -11 -4 -13 8 -8 10 3 17 2
17 -4 0 -6 5 -7 10 -4 6 3 10 1 10 -6 0 -7 3 -9 7 -6 3 4 17 0 31 -9 17 -11
22 -12 16 -3 -6 11 -5 11 9 0 10 -8 20 -11 24 -8 3 4 12 -1 19 -11 12 -15 15
-15 24 -2 8 13 10 13 10 -2 0 -11 5 -15 15 -12 8 4 21 2 28 -4 13 -10 60 -24
91 -28 10 -1 22 -8 27 -15 7 -12 9 -11 9 1 0 12 2 13 9 1 5 -8 19 -12 35 -9
20 4 24 2 16 -7 -8 -9 -3 -12 19 -9 19 2 37 -3 47 -14 13 -12 19 -13 21 -5 3
9 9 8 21 -3 11 -11 17 -13 20 -5 3 8 10 7 24 -3 11 -8 26 -12 33 -9 8 2 24 -1
37 -9 23 -12 37 -16 90 -21 15 -1 30 -6 34 -10 4 -4 14 -1 22 6 13 9 14 9 8 0
-7 -13 3 -17 38 -13 12 1 16 -2 11 -12 -6 -10 -5 -10 4 -2 10 9 19 8 39 -2 20
-10 28 -11 34 -1 6 9 8 9 8 -2 0 -8 7 -11 20 -8 11 3 20 1 20 -4 0 -5 5 -9 11
-9 5 0 7 6 3 13 -5 9 -4 9 6 0 7 -6 19 -9 26 -6 8 3 14 0 14 -6 0 -6 5 -11 11
-11 5 0 7 4 4 10 -3 6 1 7 9 4 9 -3 16 -11 16 -16 0 -6 6 -5 15 2 12 10 15 10
15 -1 0 -12 2 -12 9 0 5 8 11 9 15 3 3 -5 22 -10 42 -10 20 0 40 -6 45 -14 5
-7 9 -8 9 -3 0 6 16 10 35 10 22 0 35 -5 35 -13 0 -7 5 -10 10 -7 6 4 7 12 3
18 -5 8 -2 8 9 -1 8 -7 24 -9 33 -5 11 4 16 2 12 -3 -4 -6 6 -9 24 -6 16 2 35
-1 43 -7 10 -9 129 -11 430 -11 358 1 418 4 431 17 13 13 18 13 32 1 15 -11
16 -11 10 6 -6 14 -4 16 5 9 19 -14 50 -24 44 -14 -3 5 1 11 9 15 8 3 17 1 20
-4 4 -6 11 -10 16 -10 6 0 8 4 5 8 -2 4 4 8 15 8 10 0 19 -5 19 -10 0 -6 5 -5
12 2 7 7 25 12 40 12 16 0 28 6 28 13 0 9 3 8 9 -2 5 -8 14 -10 22 -5 22 13
60 14 52 1 -5 -9 -2 -8 9 0 8 7 18 10 21 6 4 -3 7 -1 7 6 0 7 5 9 10 6 6 -4
17 -1 25 5 12 10 15 10 15 0 0 -10 4 -10 16 1 13 10 17 10 25 -2 6 -10 9 -11
9 -1 0 7 4 11 9 7 5 -3 17 2 25 11 10 10 16 11 16 4 0 -8 9 -6 26 5 15 9 23
12 19 5 -5 -9 -2 -10 13 -6 35 12 66 18 85 18 9 -1 17 2 17 6 0 4 12 7 28 6
15 -1 32 3 39 8 7 5 17 7 23 3 5 -3 10 2 10 12 0 15 2 15 9 4 8 -13 12 -13 27
0 11 9 15 9 10 1 -6 -10 -2 -10 21 0 15 7 31 17 35 23 5 6 8 5 8 -3 0 -8 5
-10 13 -5 12 8 17 9 38 12 5 0 8 5 5 9 -3 5 1 9 9 9 8 0 12 -3 10 -7 -2 -4 11
-2 30 4 19 6 35 15 35 21 0 5 5 3 10 -5 7 -11 10 -11 10 -2 0 7 5 10 10 7 6
-3 10 -1 10 6 0 7 10 9 25 7 14 -3 28 -1 31 4 3 5 12 7 20 4 8 -3 14 -1 14 5
0 6 5 7 10 4 6 -3 10 -1 10 5 0 6 6 10 13 8 20 -3 58 13 52 23 -3 5 1 6 10 3
10 -4 29 3 46 15 24 18 33 20 45 11 10 -9 14 -9 14 -1 0 6 8 11 18 11 10 0 24
6 31 13 11 10 12 9 6 -2 -5 -9 4 -6 22 7 17 12 33 19 37 15 3 -3 15 2 26 12
11 10 20 14 20 10 0 -4 10 0 22 11 14 13 19 14 14 4 -5 -9 -2 -8 7 2 8 10 17
15 20 11 4 -3 14 0 23 8 10 8 18 12 18 10 1 -2 11 -1 24 3 13 4 20 12 16 19
-5 9 -4 9 6 0 15 -14 43 -6 33 10 -4 6 0 8 8 5 16 -6 41 16 31 28 -4 5 1 2 11
-5 12 -9 17 -10 17 -2 0 7 8 11 18 9 10 -2 16 2 14 11 -2 8 3 11 13 8 8 -4 15
-2 15 4 0 6 4 8 9 4 5 -3 15 0 23 7 7 7 22 15 33 16 11 2 30 13 42 24 13 12
29 18 38 14 9 -3 14 -2 11 3 -3 4 4 17 17 27 21 19 21 19 7 -1 -15 -19 -15
-19 13 -2 15 10 27 14 27 10 0 -5 5 0 11 9 5 10 17 18 24 18 8 0 15 5 15 11 0
5 4 8 9 5 5 -4 11 -1 13 6 2 6 15 13 29 15 13 2 26 8 27 13 2 6 8 10 13 10 19
0 79 47 71 56 -4 4 2 2 12 -6 11 -8 17 -10 14 -5 -4 6 2 17 14 24 13 8 18 9
13 1 -5 -8 0 -7 13 1 12 7 19 16 16 20 -2 4 3 10 12 13 10 4 13 2 8 -7 -4 -6
3 -2 15 11 12 12 27 19 33 16 7 -4 8 -2 4 4 -4 7 3 14 19 18 14 3 25 10 25 15
0 5 11 14 25 19 14 5 25 14 25 19 0 6 8 8 18 4 9 -3 14 -2 10 2 -11 11 29 38
44 29 7 -4 8 -3 4 4 -4 7 -2 12 4 12 6 0 8 5 5 10 -4 6 -3 10 2 9 18 -5 64 21
57 33 -4 7 -3 8 4 4 7 -4 12 -2 12 3 0 6 5 10 12 9 6 -2 17 8 24 20 8 17 13
20 17 10 4 -10 6 -10 6 0 1 7 6 10 11 7 6 -4 9 -1 8 6 -2 7 2 13 9 14 6 0 21
10 33 23 11 12 25 22 31 22 6 0 8 4 5 9 -7 11 22 23 36 14 6 -3 8 -2 5 4 -5 8
63 81 78 83 22 3 35 15 31 27 -3 8 -2 12 3 8 13 -7 42 5 35 16 -3 5 -1 9 5 9
6 0 24 13 41 30 17 16 35 30 40 30 6 0 10 8 10 18 0 14 2 15 10 2 7 -10 10
-11 10 -2 0 17 55 73 63 65 4 -3 7 -2 7 4 0 14 70 90 71 77 0 -5 7 5 14 21 8
17 14 24 15 17 0 -7 4 -11 10 -7 5 3 7 12 3 20 -4 11 -1 13 13 8 11 -4 15 -3
10 5 -3 6 3 13 14 17 11 4 17 11 14 17 -5 8 -1 9 10 5 10 -4 15 -3 11 3 -7 11
19 42 28 34 3 -3 8 4 12 15 4 12 11 18 17 15 8 -5 9 -1 5 10 -6 14 -3 17 9 12
12 -5 15 -2 10 11 -4 10 -4 14 0 10 10 -10 35 13 27 26 -4 6 0 8 10 4 12 -4
15 -1 12 14 -2 11 0 17 6 14 5 -4 12 1 15 9 3 9 12 16 20 16 13 0 19 20 14 45
-1 5 1 7 5 3 9 -9 47 31 40 42 -4 6 -1 10 4 10 6 0 14 0 19 1 11 1 31 43 25
53 -4 5 -2 7 3 4 12 -7 61 45 56 60 -1 5 6 13 17 17 12 3 21 12 21 20 0 7 12
23 28 34 20 16 22 20 7 15 -15 -4 -14 -2 4 9 17 10 20 16 10 19 -9 4 -4 8 14
13 15 4 27 11 27 17 0 5 -6 6 -12 3 -7 -4 -4 1 7 10 11 9 19 21 17 26 -1 5 5
9 13 9 8 0 14 3 14 8 -3 19 2 33 10 28 5 -3 12 1 15 10 4 10 2 13 -7 9 -6 -4
-4 0 7 9 10 9 15 20 10 27 -5 9 -2 10 9 6 15 -6 22 3 18 26 0 4 3 7 9 7 5 0
10 4 10 9 0 6 11 22 25 37 14 15 24 33 21 41 -3 7 0 15 6 19 7 5 8 2 3 -7 -5
-10 -5 -11 3 -4 6 6 12 17 14 25 2 8 11 21 21 28 9 7 17 20 17 28 0 8 5 14 10
14 6 0 10 5 10 11 0 5 -6 7 -12 4 -7 -4 -3 2 9 13 12 11 19 22 16 26 -4 3 -1
6 5 6 7 0 12 7 12 16 0 9 5 12 13 8 7 -5 6 0 -3 11 -8 10 -10 16 -5 13 11 -7
37 17 28 26 -3 3 2 8 11 12 9 3 13 11 9 17 -3 5 2 16 12 23 10 8 15 20 11 29
-4 11 -2 14 6 9 8 -5 9 -2 5 10 -4 11 -3 15 4 11 6 -4 13 2 16 14 3 12 10 21
17 21 7 0 6 4 -2 9 -11 7 -10 9 3 15 9 3 13 10 10 16 -3 5 -2 10 4 10 6 0 7 7
4 17 -4 11 -3 14 5 9 11 -6 14 -1 11 20 0 3 8 12 18 21 11 9 12 12 3 8 -9 -4
-7 0 4 9 10 8 19 26 20 40 0 14 7 28 14 31 6 2 12 14 12 25 0 11 5 20 11 20 8
0 7 6 -2 17 -10 11 -10 14 -1 9 6 -4 12 -3 12 3 0 6 10 20 23 32 12 12 15 18
7 14 -13 -8 -13 -6 -1 8 7 9 11 23 7 32 -3 8 0 14 7 12 7 -1 11 8 9 23 -2 18
0 21 6 12 7 -11 11 -8 15 10 10 34 8 40 -5 33 -7 -4 -5 0 6 9 10 8 15 20 10
27 -4 8 -3 10 4 5 11 -7 16 5 13 30 -1 7 5 14 13 17 9 4 13 15 11 26 -2 11 -1
20 3 20 19 -3 22 3 11 22 -8 15 -8 19 0 15 10 -7 13 -3 15 27 1 6 8 18 16 25
13 12 13 13 0 6 -13 -7 -13 -5 -2 9 8 9 11 21 7 27 -3 5 -1 10 5 10 6 0 9 4 5
9 -3 5 -1 12 5 16 6 4 8 11 5 16 -4 5 -1 9 4 9 6 0 10 3 10 8 -3 19 2 33 11
27 6 -3 7 1 4 9 -4 10 -1 16 7 16 12 0 12 2 0 9 -9 6 -10 11 -2 15 6 4 11 18
11 32 0 16 4 23 11 18 7 -4 7 1 -1 16 -8 15 -8 20 -1 16 11 -7 16 12 12 43 -2
7 2 10 8 6 7 -3 8 0 5 9 -4 9 -1 16 6 16 9 0 9 4 -1 17 -12 14 -12 15 0 9 10
-7 12 -3 6 14 -5 15 -4 20 4 16 7 -5 9 -1 5 8 -3 9 -1 16 6 16 6 0 9 4 5 9 -3
5 0 13 6 17 8 4 7 9 -2 15 -12 8 -11 12 2 22 9 6 14 17 12 24 -2 6 1 14 6 18
6 3 11 11 11 16 0 6 -4 7 -10 4 -6 -3 -7 1 -4 9 3 9 11 16 16 16 7 0 6 5 -1
14 -9 11 -8 15 5 20 12 4 13 10 6 19 -7 8 -6 18 4 31 17 24 18 40 3 30 -7 -4
-7 1 1 16 6 12 9 28 6 35 -3 8 0 17 6 21 7 5 8 2 3 -7 -5 -8 -4 -10 0 -6 12
10 15 38 4 32 -12 -8 2 28 15 37 7 5 6 8 -3 8 -10 0 -11 3 -2 13 6 8 8 17 4
20 -3 4 -1 7 6 7 7 0 9 5 6 10 -3 6 -3 16 1 22 11 18 12 48 2 48 -4 0 -8 5 -8
11 0 5 4 7 10 4 6 -3 7 1 4 9 -3 9 -1 16 6 16 6 0 8 5 5 10 -3 6 0 10 7 10 10
0 10 2 -1 9 -9 6 -10 10 -2 16 9 5 9 10 0 21 -9 11 -9 14 1 14 9 0 9 4 -1 17
-8 10 -9 14 -2 10 14 -9 14 32 0 51 -7 9 -5 11 9 6 10 -4 16 -4 12 1 -4 4 -2
15 5 23 10 13 9 14 -3 7 -13 -7 -13 -6 -2 7 10 12 10 17 1 20 -8 3 -9 9 -4 19
15 22 16 49 3 49 -6 0 -3 7 8 15 11 8 14 14 6 15 -10 0 -10 5 -1 21 8 16 8 20
-1 14 -17 -10 -8 27 10 42 13 11 13 14 0 23 -10 6 -11 10 -2 10 9 0 12 88 12
405 0 278 -3 405 -11 405 -5 0 -7 5 -4 10 3 6 0 10 -7 10 -9 0 -9 3 2 10 8 5
11 10 5 10 -6 0 -9 24 -9 55 1 30 -2 52 -7 50 -9 -6 -5 42 4 52 12 11 8 25 -5
17 -8 -5 -9 -2 -5 9 3 10 2 17 -2 17 -5 0 -7 9 -4 20 3 13 0 20 -8 20 -11 0
-11 2 1 10 12 8 13 11 1 19 -9 6 -10 11 -2 15 8 5 6 17 -6 39 -16 31 -16 32 3
17 18 -14 18 -14 3 5 -8 11 -15 29 -14 40 0 11 -3 28 -8 39 -6 13 -5 21 4 27
10 6 11 9 2 9 -7 0 -13 8 -13 18 0 10 -6 24 -12 31 -11 11 -10 12 1 6 10 -6
12 -4 5 6 -10 16 -13 32 -16 76 0 18 -5 30 -10 27 -5 -3 -6 7 -2 22 5 19 4 25
-4 20 -8 -5 -10 -1 -6 9 4 8 0 23 -7 32 -10 12 -10 15 -1 9 6 -4 12 -3 12 3 0
5 -4 13 -10 16 -5 3 -10 20 -10 36 0 17 -4 28 -8 25 -5 -3 -8 5 -6 17 1 12 -4
32 -12 43 -9 16 -10 24 -1 33 8 8 8 11 -1 11 -7 0 -12 13 -12 29 0 16 -5 31
-10 33 -6 2 -11 18 -13 36 -1 17 -5 32 -8 32 -3 0 -6 6 -7 13 -2 21 -7 42 -15
54 -4 6 -1 14 5 16 8 3 6 6 -5 6 -10 1 -15 5 -12 11 3 5 -2 21 -11 35 -16 24
-16 25 2 19 17 -5 17 -4 -1 11 -11 9 -19 19 -18 23 5 15 -10 52 -21 52 -6 0
-4 5 4 10 11 7 11 10 2 10 -7 0 -11 4 -7 9 3 5 1 12 -5 16 -6 4 -8 11 -5 16 4
5 1 9 -4 9 -6 0 -10 3 -10 8 4 23 -2 42 -12 36 -8 -4 -9 1 -4 16 5 15 4 20 -4
16 -7 -5 -9 -1 -5 8 4 10 1 16 -7 16 -7 0 -9 3 -6 6 3 4 2 15 -4 26 -6 11 -12
29 -14 40 -3 11 -11 28 -20 38 -8 9 -12 19 -9 23 9 9 -6 48 -17 42 -5 -3 -6 2
-2 11 5 13 3 15 -7 9 -9 -6 -11 -4 -6 4 5 7 0 19 -10 27 -11 9 -13 12 -5 8 11
-5 13 -3 8 10 -4 10 -7 20 -7 22 0 3 -5 2 -12 -2 -8 -5 -9 -2 -5 9 3 10 2 17
-4 17 -6 0 -8 4 -4 9 3 5 1 12 -5 16 -6 4 -8 11 -5 16 4 5 1 9 -5 9 -6 0 -8 4
-5 10 3 6 2 10 -4 10 -6 0 -7 7 -4 17 4 11 3 14 -5 9 -7 -4 -12 -1 -12 9 0 17
-20 56 -33 66 -5 3 -8 10 -8 15 1 15 -23 64 -32 64 -5 0 -5 5 -2 10 3 6 1 10
-5 10 -6 0 -8 5 -5 10 3 6 1 10 -4 10 -6 0 -10 6 -8 13 1 6 -4 11 -12 9 -12
-3 -12 0 -2 12 11 13 10 17 -3 22 -9 3 -14 9 -11 13 2 4 -5 14 -16 21 -10 8
-19 20 -19 27 0 14 -20 54 -31 63 -4 3 -9 15 -13 28 -4 12 -12 20 -17 17 -5
-3 -6 1 -3 9 4 9 -1 18 -10 22 -9 3 -13 10 -10 15 3 5 0 9 -5 9 -6 0 -11 7
-11 15 0 8 -4 15 -10 15 -5 0 -10 7 -10 15 0 8 -9 24 -20 35 -11 11 -20 23
-20 26 0 3 -9 18 -20 34 -11 15 -17 30 -13 34 3 3 -1 6 -10 6 -9 0 -16 3 -16
8 4 21 -2 32 -13 26 -7 -5 -9 -2 -5 9 6 15 -17 33 -37 28 -5 -1 -5 4 1 11 12
14 -9 43 -22 30 -4 -4 -5 0 -3 8 2 9 -3 14 -12 12 -12 -3 -12 -1 -3 9 9 9 6
17 -12 35 -13 13 -26 33 -30 44 -4 11 -11 18 -16 15 -5 -4 -9 3 -9 15 0 12 -4
19 -9 16 -4 -3 -13 6 -20 20 -6 14 -16 22 -21 19 -6 -3 -10 3 -10 14 0 12 -7
21 -15 21 -8 0 -15 5 -15 11 0 5 6 7 13 4 6 -4 0 4 -15 17 -16 13 -28 28 -28
32 0 5 -18 27 -40 48 -22 22 -40 44 -40 50 0 6 -6 8 -14 5 -10 -4 -12 0 -9 14
4 13 0 19 -11 19 -8 0 -23 12 -33 28 -24 39 -80 92 -89 84 -4 -4 -4 -2 0 5 3
6 -2 16 -11 22 -10 6 -15 11 -10 11 4 0 -1 8 -10 18 -10 11 -22 16 -28 13 -5
-2 -3 4 5 14 13 16 13 18 0 13 -15 -5 -50 26 -50 44 0 5 -4 6 -10 3 -5 -3 -10
1 -10 9 0 9 -7 16 -16 16 -8 0 -12 5 -9 10 3 6 -1 10 -10 10 -8 0 -18 7 -21
15 -4 8 -11 12 -17 8 -6 -4 -7 -1 -3 6 10 16 -22 51 -46 51 -11 0 -16 5 -13
10 3 6 -1 10 -9 10 -9 0 -16 5 -16 11 0 5 -4 8 -9 5 -5 -3 -12 6 -15 20 -6 22
-9 24 -23 12 -12 -9 -15 -9 -9 0 4 7 2 12 -4 12 -6 0 -9 4 -5 9 3 5 -4 12 -15
16 -11 4 -18 11 -15 16 4 5 0 9 -7 9 -7 0 -19 9 -26 20 -7 12 -16 19 -21 16
-4 -3 -13 4 -21 14 -8 10 -17 17 -22 14 -8 -5 -12 11 -8 31 1 5 -1 7 -5 4 -3
-4 -17 3 -30 15 -38 35 -55 47 -55 40 0 -4 -14 9 -31 27 -18 19 -28 27 -23 19
5 -9 0 -6 -11 7 -12 13 -26 23 -33 23 -7 0 -12 7 -12 16 0 9 -6 14 -13 11 -15
-5 -39 18 -29 28 4 4 -3 2 -16 -4 -12 -7 -22 -8 -21 -4 5 29 -3 41 -25 39 -18
-2 -23 1 -18 12 3 9 1 13 -5 9 -6 -4 -14 0 -17 9 -3 8 -10 12 -16 9 -5 -3 -10
-1 -10 4 0 6 -8 11 -17 11 -15 0 -16 2 -3 10 12 8 11 10 -5 10 -11 0 -27 9
-35 20 -11 15 -17 17 -29 7 -9 -6 -13 -7 -9 -3 11 13 -11 36 -34 36 -10 0 -16
5 -13 10 3 6 1 10 -6 10 -6 0 -18 8 -26 18 -9 10 -11 11 -7 2 6 -11 2 -10 -13
3 -11 9 -25 17 -32 17 -6 0 -14 7 -17 15 -4 8 -10 12 -15 9 -5 -3 -9 1 -9 10
0 9 -8 13 -25 11 -14 -1 -25 1 -25 6 0 12 -42 49 -54 49 -6 0 -4 -5 4 -10 8
-5 11 -10 6 -10 -5 0 -19 11 -32 25 -13 14 -29 22 -37 19 -9 -3 -22 4 -31 18
-9 12 -16 18 -16 13 0 -6 -7 -1 -15 9 -8 11 -15 14 -15 8 0 -7 -9 -3 -20 8
-12 12 -25 18 -30 15 -6 -4 -10 -1 -10 5 0 7 -7 9 -16 6 -8 -3 -12 -2 -9 4 5
9 -9 15 -18 8 -2 -2 -11 5 -21 15 -10 9 -21 15 -26 12 -4 -3 -11 2 -14 11 -4
9 -13 14 -22 10 -8 -3 -12 -2 -9 4 3 6 -3 10 -14 10 -12 0 -21 6 -21 13 0 8
-4 7 -10 -3 -6 -10 -10 -11 -10 -3 0 7 -18 21 -40 32 -22 11 -37 14 -34 8 4
-7 -3 -2 -15 11 -24 24 -36 29 -26 10 4 -7 -1 -4 -9 6 -9 11 -16 16 -16 11 0
-5 -5 -4 -12 3 -7 7 -22 12 -35 12 -13 0 -23 4 -23 10 0 5 -7 6 -17 3 -10 -4
-14 -2 -10 4 4 6 0 14 -9 17 -9 4 -13 2 -8 -5 3 -6 -5 -3 -19 6 -15 9 -30 14
-36 11 -5 -3 -12 1 -15 9 -3 8 -9 14 -13 14 -12 -3 -47 13 -55 25 -5 7 -8 6
-8 -2 0 -10 -4 -9 -16 3 -9 9 -23 14 -30 11 -8 -3 -14 -1 -14 5 0 6 -7 9 -15
5 -8 -3 -15 -1 -15 5 0 6 -9 8 -21 4 -13 -5 -19 -3 -15 3 3 5 -1 13 -10 16 -8
3 -12 2 -9 -4 3 -6 -1 -7 -9 -4 -9 3 -16 10 -16 15 0 5 -14 9 -31 9 -16 0 -28
4 -24 9 3 5 1 12 -4 15 -5 4 -13 1 -17 -5 -5 -8 -3 -9 6 -4 9 5 11 4 6 -3 -5
-9 -14 -7 -32 4 -13 9 -33 14 -44 11 -11 -3 -18 -1 -15 3 3 5 1 11 -5 15 -5 3
-10 0 -10 -7 0 -9 -3 -9 -10 2 -5 8 -10 11 -10 5 0 -5 -4 -5 -8 2 -4 6 -22 13
-40 16 -18 3 -40 11 -48 17 -11 10 -14 10 -14 -1 0 -12 -2 -12 -9 0 -5 8 -18
12 -30 8 -12 -3 -19 0 -18 6 1 6 -7 11 -18 12 -11 0 -26 4 -34 9 -10 6 -12 5
-7 -2 4 -6 -5 -5 -21 3 -21 11 -29 12 -35 2 -5 -8 -8 -7 -8 6 0 20 -11 22 -28
5 -9 -9 -12 -9 -12 1 0 7 -4 9 -10 6 -5 -3 -10 -2 -10 4 0 5 -9 8 -20 6 -11
-2 -20 0 -20 4 0 4 -22 8 -49 7 -37 -1 -47 2 -40 11 12 13 -8 13 -30 -1 -9 -6
-12 -5 -8 1 4 6 -2 13 -13 16 -12 3 -18 1 -14 -5 4 -6 -3 -5 -15 1 -11 7 -21
9 -21 5 0 -3 -6 -2 -12 3 -7 5 -22 10 -33 11 -11 0 -32 3 -47 6 -18 3 -28 0
-28 -7 0 -7 -5 -4 -11 6 -8 14 -14 15 -31 6 -13 -7 -18 -7 -14 -1 10 17 -28
19 -42 2 -11 -13 -11 -13 -6 1 3 10 0 20 -7 25 -7 4 -10 3 -6 -3 4 -6 -8 -10
-28 -10 -19 0 -35 4 -35 9 0 5 -5 6 -10 3 -6 -4 -7 -11 -4 -17 4 -7 2 -8 -5
-4 -6 4 -8 12 -5 18 5 7 1 9 -9 5 -10 -3 -17 -3 -17 1 0 4 -19 6 -42 6 -24 -1
-51 2 -60 7 -10 6 -19 5 -23 -1 -5 -8 -11 -8 -19 -1 -7 6 -16 8 -20 4 -9 -9
-46 -11 -40 -2 2 4 0 10 -6 14 -5 3 -10 1 -10 -4 0 -6 -5 -11 -11 -11 -5 0 -7
5 -4 10 10 16 -710 11 -732 -5z m4058 -1462 c13 -16 12 -17 -3 -4 -10 7 -18
15 -18 17 0 8 8 3 21 -13z m410 -450 c13 -16 12 -17 -3 -4 -10 7 -18 15 -18
17 0 8 8 3 21 -13z"/>
<path d="M7065 300 c-3 -5 -2 -10 4 -10 5 0 13 5 16 10 3 6 2 10 -4 10 -5 0
-13 -4 -16 -10z"/>
</g>
</svg>
